<?xml version="1.0" encoding="UTF-8" standalone="no"?>
<!-- Created with Inkscape (http://www.inkscape.org/) -->

<svg
   width="70.384064mm"
   height="346.59512mm"
   viewBox="0 0 70.384062 346.59513"
   version="1.1"
   id="svg1"
   sodipodi:docname="ArmingSword.svg"
   inkscape:version="1.4 (86a8ad7, 2024-10-11)"
   xmlns:inkscape="http://www.inkscape.org/namespaces/inkscape"
   xmlns:sodipodi="http://sodipodi.sourceforge.net/DTD/sodipodi-0.dtd"
   xmlns="http://www.w3.org/2000/svg"
   xmlns:svg="http://www.w3.org/2000/svg">
  <sodipodi:namedview
     id="namedview1"
     pagecolor="#505050"
     bordercolor="#ffffff"
     borderopacity="1"
     inkscape:showpageshadow="0"
     inkscape:pageopacity="0"
     inkscape:pagecheckerboard="1"
     inkscape:deskcolor="#505050"
     inkscape:document-units="mm"
     inkscape:zoom="0.24632085"
     inkscape:cx="117.73262"
     inkscape:cy="590.69299"
     inkscape:window-width="1366"
     inkscape:window-height="697"
     inkscape:window-x="-8"
     inkscape:window-y="-8"
     inkscape:window-maximized="1"
     inkscape:current-layer="g12"
     showgrid="true">
    <inkscape:grid
       id="grid35"
       units="mm"
       originx="-17.307457"
       originy="-43.902368"
       spacingx="99.999999"
       spacingy="100.00001"
       empcolor="#0099e5"
       empopacity="0.30196078"
       color="#0099e5"
       opacity="0.14901961"
       empspacing="5"
       enabled="true"
       visible="true" />
  </sodipodi:namedview>
  <defs
     id="defs1">
    <inkscape:path-effect
       effect="mirror_symmetry"
       start_point="296.54991,-125.08549"
       end_point="296.54991,-102.48941"
       center_point="296.54991,-113.78745"
       id="path-effect14"
       is_visible="true"
       lpeversion="1.2"
       lpesatellites=""
       mode="free"
       discard_orig_path="false"
       fuse_paths="true"
       oposite_fuse="false"
       split_items="false"
       split_open="false"
       link_styles="false" />
    <inkscape:path-effect
       effect="mirror_symmetry"
       start_point="128.75596,-148.95187"
       end_point="128.75596,212.65192"
       center_point="128.75596,31.850025"
       id="path-effect13"
       is_visible="true"
       lpeversion="1.2"
       lpesatellites=""
       mode="free"
       discard_orig_path="false"
       fuse_paths="true"
       oposite_fuse="false"
       split_items="false"
       split_open="false"
       link_styles="false" />
    <inkscape:path-effect
       effect="mirror_symmetry"
       start_point="113.78759,-145.66211"
       end_point="113.78759,305.27734"
       center_point="113.78759,79.807617"
       id="path-effect12"
       is_visible="true"
       lpeversion="1.2"
       lpesatellites=""
       mode="free"
       discard_orig_path="false"
       fuse_paths="true"
       oposite_fuse="false"
       split_items="false"
       split_open="false"
       link_styles="false" />
    <inkscape:path-effect
       effect="bspline"
       id="path-effect8"
       is_visible="true"
       lpeversion="1.3"
       weight="33.333333"
       steps="2"
       helper_size="0"
       apply_no_weight="true"
       apply_with_weight="true"
       only_selected="false"
       uniform="false" />
    <inkscape:path-effect
       effect="bspline"
       id="path-effect7"
       is_visible="true"
       lpeversion="1.3"
       weight="33.333333"
       steps="2"
       helper_size="0"
       apply_no_weight="true"
       apply_with_weight="true"
       only_selected="false"
       uniform="false" />
    <inkscape:path-effect
       effect="bspline"
       id="path-effect6"
       is_visible="true"
       lpeversion="1.3"
       weight="33.333333"
       steps="2"
       helper_size="0"
       apply_no_weight="true"
       apply_with_weight="true"
       only_selected="false"
       uniform="false" />
  </defs>
  <g
     inkscape:label="Layer 1"
     inkscape:groupmode="layer"
     id="layer1"
     transform="translate(-75.529095,103.53424)">
    <g
       id="g12"
       inkscape:path-effect="#path-effect12"
       transform="matrix(1.0671199,0,0,1.0671199,-10.703363,-16.259671)">
      <path
         style="fill:#000000;stroke-width:0.278259"
         d="m 80.808594,156.66406 0.08984,10.37696 h 32.888673 32.89062 l 0.0879,-10.37696 c 0,0 -0.39113,4.08752 -32.97851,4.40821 -32.587377,-0.32069 -32.978516,-4.40821 -32.978516,-4.40821 z"
         id="path2"
         inkscape:original-d="m 117.94082,161.09314 c -36.707989,0 -37.132192,-4.42951 -37.132192,-4.42951 l 0.08897,10.37748 H 117.7732 Z"
         sodipodi:nodetypes="ccccc" />
      <path
         style="fill:#000000;stroke-width:0.322691"
         d="m 113.78711,-81.785156 -5.93555,13.46289 -2.34961,11.330079 -5.828122,215.298827 4.580082,0.24609 9.52343,-1.98632 0.01,-0.22461 0.01,0.22461 9.52343,1.98632 4.58203,-0.24609 -5.83007,-215.298827 -2.34961,-11.330079 z m 0,61.017578 1.16016,5.382812 2.09961,155.941406 -3.25977,2.97461 -3.25781,-2.97461 2.09765,-155.941406 z"
         id="path1"
         sodipodi:nodetypes="ccccccccccc"
         inkscape:original-d="m 113.77769,156.56735 0.54939,-12.54457 -3.798,-3.46699 2.09816,-155.939693 1.75148,-8.127609 0,-59.615388 -6.52697,14.804799 -2.34953,11.328942 -5.828463,215.300299 4.580503,0.24586 z" />
      <path
         id="path10"
         style="fill:#000000;stroke-width:0.240724"
         d="m 113.78711,158.62305 -7.69141,2.05664 c 0,2.41139 0.016,4.58534 0.0293,6.80468 l 7.66211,0.73438 7.66211,-0.73438 c 0.0133,-2.21934 0.0312,-4.39329 0.0312,-6.80468 z m 0,11.92382 -7.75781,1.41407 c 0.70262,17.12289 -1.81961,11.951 2.88672,47.2207 l 2.58789,-0.92383 2.2832,-0.0762 2.2832,0.0762 2.58789,0.92383 c 4.70633,-35.2697 2.1841,-30.09781 2.88672,-47.2207 z"
         inkscape:original-d="m 115.57682,158.14431 -9.48131,2.53607 c 0,2.41139 0.0164,4.58411 0.0297,6.80345 l 9.4516,0.9064 z m 0,12.07691 -9.54686,1.73924 c 0.70262,17.12289 -1.81944,11.95065 2.88689,47.22035 l 2.58759,-0.92252 4.07239,-0.13794 z"
         sodipodi:nodetypes="ccccccccccc" />
      <path
         id="path12"
         style="stroke-width:0.264583"
         d="m 113.78711,220.41406 c -4.03645,6e-5 -7.76507,2.15272 -9.7832,5.64844 -2.0182,3.49562 -2.0182,7.80321 0,11.29883 2.01826,3.49552 5.74686,5.64849 9.7832,5.64844 4.03634,5e-5 7.76689,-2.15292 9.78516,-5.64844 2.01819,-3.49562 2.01819,-7.80321 0,-11.29883 -2.01814,-3.49572 -5.74871,-5.64838 -9.78516,-5.64844 z m 0,5.74414 c 1.95462,0.002 3.76075,1.04565 4.73828,2.73828 0.97827,1.6945 0.97827,3.78207 0,5.47657 -0.9774,1.69282 -2.78355,2.73636 -4.73828,2.73828 -1.95473,-0.002 -3.75893,-1.04546 -4.73633,-2.73828 -0.97827,-1.6945 -0.97827,-3.78207 0,-5.47657 0.97753,-1.69263 2.78171,-2.73646 4.73633,-2.73828 z"
         inkscape:original-d="m 113.78763,220.41397 a 11.298044,11.298044 0 0 0 -9.78442,5.64927 11.298044,11.298044 0 0 0 0,11.29802 11.298044,11.298044 0 0 0 9.78442,5.64875 v -5.89835 a 5.4768581,5.4768581 0 0 1 -4.7377,-2.73833 5.4768581,5.4768581 0 0 1 0,-5.47667 5.4768581,5.4768581 0 0 1 4.7377,-2.73782 z" />
    </g>
  </g>
</svg>
