<?xml version="1.0" encoding="UTF-8" standalone="no"?>
<!-- Created with Inkscape (http://www.inkscape.org/) -->

<svg
   width="62.793278mm"
   height="305.37775mm"
   viewBox="0 0 62.793276 305.37775"
   version="1.1"
   id="svg1"
   sodipodi:docname="Club.svg"
   inkscape:version="1.4 (86a8ad7, 2024-10-11)"
   xmlns:inkscape="http://www.inkscape.org/namespaces/inkscape"
   xmlns:sodipodi="http://sodipodi.sourceforge.net/DTD/sodipodi-0.dtd"
   xmlns="http://www.w3.org/2000/svg"
   xmlns:svg="http://www.w3.org/2000/svg">
  <sodipodi:namedview
     id="namedview1"
     pagecolor="#505050"
     bordercolor="#ffffff"
     borderopacity="1"
     inkscape:showpageshadow="0"
     inkscape:pageopacity="0"
     inkscape:pagecheckerboard="1"
     inkscape:deskcolor="#505050"
     inkscape:document-units="mm"
     inkscape:zoom="0.34835029"
     inkscape:cx="157.88705"
     inkscape:cy="457.87245"
     inkscape:window-width="1366"
     inkscape:window-height="697"
     inkscape:window-x="-8"
     inkscape:window-y="-8"
     inkscape:window-maximized="1"
     inkscape:current-layer="layer1"
     showgrid="true">
    <inkscape:grid
       id="grid35"
       units="mm"
       originx="-21.535358"
       originy="-70.097457"
       spacingx="99.999999"
       spacingy="100.00001"
       empcolor="#0099e5"
       empopacity="0.30196078"
       color="#0099e5"
       opacity="0.14901961"
       empspacing="5"
       enabled="true"
       visible="true" />
  </sodipodi:namedview>
  <defs
     id="defs1">
    <inkscape:path-effect
       effect="mirror_symmetry"
       start_point="296.54991,-125.08549"
       end_point="296.54991,-102.48941"
       center_point="296.54991,-113.78745"
       id="path-effect14"
       is_visible="true"
       lpeversion="1.2"
       lpesatellites=""
       mode="free"
       discard_orig_path="false"
       fuse_paths="true"
       oposite_fuse="false"
       split_items="false"
       split_open="false"
       link_styles="false" />
    <inkscape:path-effect
       effect="mirror_symmetry"
       start_point="128.75596,-148.95187"
       end_point="128.75596,212.65192"
       center_point="128.75596,31.850025"
       id="path-effect13"
       is_visible="true"
       lpeversion="1.2"
       lpesatellites=""
       mode="free"
       discard_orig_path="false"
       fuse_paths="true"
       oposite_fuse="false"
       split_items="false"
       split_open="false"
       link_styles="false" />
    <inkscape:path-effect
       effect="mirror_symmetry"
       start_point="113.78759,-145.66211"
       end_point="113.78759,305.27734"
       center_point="113.78759,79.807617"
       id="path-effect12"
       is_visible="true"
       lpeversion="1.2"
       lpesatellites=""
       mode="free"
       discard_orig_path="false"
       fuse_paths="true"
       oposite_fuse="false"
       split_items="false"
       split_open="false"
       link_styles="false" />
    <inkscape:path-effect
       effect="bspline"
       id="path-effect8"
       is_visible="true"
       lpeversion="1.3"
       weight="33.333333"
       steps="2"
       helper_size="0"
       apply_no_weight="true"
       apply_with_weight="true"
       only_selected="false"
       uniform="false" />
    <inkscape:path-effect
       effect="bspline"
       id="path-effect7"
       is_visible="true"
       lpeversion="1.3"
       weight="33.333333"
       steps="2"
       helper_size="0"
       apply_no_weight="true"
       apply_with_weight="true"
       only_selected="false"
       uniform="false" />
    <inkscape:path-effect
       effect="bspline"
       id="path-effect6"
       is_visible="true"
       lpeversion="1.3"
       weight="33.333333"
       steps="2"
       helper_size="0"
       apply_no_weight="true"
       apply_with_weight="true"
       only_selected="false"
       uniform="false" />
  </defs>
  <g
     inkscape:label="Layer 1"
     inkscape:groupmode="layer"
     id="layer1"
     transform="translate(-79.756996,77.339151)">
    <path
       id="path1"
       style="fill:#000000;stroke-width:0.264583"
       d="m 124.62584,-77.330155 c -4.87762,-0.142412 -9.22127,1.424108 -17.19637,3.41788 -10.633424,2.658364 -21.462554,-0.603262 -25.82426,16.329752 -3.402086,13.207576 -1.139411,8.354844 -0.759644,14.051339 0.379766,5.696492 3.797701,14.810654 3.797701,23.165511 0,8.354856 6.640406,14.1056403 10.058301,17.9032999 3.417898,3.7976625 3.927705,42.1141131 3.908805,54.7894201 -0.01908,12.80082 1.139525,13.069455 1.519287,19.905245 0.37976,6.835794 -2.194273,6.901226 0.84388,16.395382 2.64189,8.255923 2.52682,32.825816 2.65513,40.653846 0.007,0.45412 -0.003,0.90111 0.002,1.35599 5.43605,-2.34578 12.88752,-4.4072 19.60604,-5.99756 0.44117,-2.83768 1.05149,-6.10828 1.85725,-12.73566 1.98307,-16.310862 0.22235,-14.522892 1.0852,-23.618197 0.86824,-9.152078 2.37097,-23.111903 2.75074,-31.086992 0.37977,-7.975092 0.36094,-13.18838 -1.53789,-16.986043 -1.89884,-3.797662 4.15788,-11.25504 4.15788,-17.711063 0,-6.456027 0.55619,-14.810806 5.11339,-27.7228561 4.55719,-12.9120529 2.66645,-17.8031439 2.28668,-21.9805709 -0.37976,-4.17743 1.18201,-6.925141 1.32757,-10.31875 0.17636,-4.112269 -1.75906,-5.435772 0.11834,-12.892753 1.76061,-6.993094 2.63952,-9.225536 1.87999,-14.542264 -0.75953,-5.316725 -4.84474,-9.716999 -12.44007,-11.615829 -1.89883,-0.474708 -3.58415,-0.711656 -5.21002,-0.759127 z m -1.70015,204.426795 c -4.10733,0.77942 -10.32102,2.9351 -19.2903,7.00216 0.001,0.72854 0.004,1.42862 0.003,2.15646 5.99766,1.34041 14.55303,4.67914 19.07274,6.5257 -0.002,-0.0867 -0.002,-0.12696 -0.004,-0.21549 -0.0202,0.0225 -0.10026,0.1142 -0.10026,0.1142 l 0.10026,-0.12712 c -0.0303,-1.47768 -0.0173,-1.8292 -0.0863,-4.17597 -0.16838,-5.72484 -0.0246,-8.53241 0.30541,-11.27994 z m -19.28307,12.49588 c -0.005,1.75948 0.0272,3.44634 0.032,5.1816 2.79742,-1.20798 8.63378,-1.61424 13.8343,-1.71669 -3.25447,-1.82883 -7.70012,-3.16829 -13.86634,-3.46491 z m 13.54285,5.28908 c -3.44562,0.0659 -7.85413,1.08283 -13.48807,3.5693 0.0191,1.40911 0.0738,2.76743 0.11627,4.1429 6.1448,1.51006 15.47075,4.75728 19.37556,6.14897 -0.2276,-5.10813 -0.34017,-8.52994 -0.38757,-11.20396 -0.62438,-0.82328 -1.39755,-1.62045 -2.27841,-2.38487 -0.99899,-0.19502 -2.1053,-0.29589 -3.33778,-0.27234 z m -12.89224,10.64897 c -0.12627,10e-4 -0.25326,0.008 -0.37982,0.0108 0.10516,2.07434 0.24921,4.0946 0.47801,6.00118 0.73304,6.10876 0.51704,7.12751 0.27388,11.63857 5.0399,-3.23455 14.41731,-7.42912 18.75545,-9.31209 -0.0221,-0.43441 -0.0179,-0.33755 -0.0413,-0.80719 -0.0436,-0.87298 -0.0499,-1.19601 -0.0868,-1.96887 -5.4723,-3.16254 -12.00123,-5.63841 -18.99936,-5.56245 z m 18.91771,11.10216 c -3.6073,-0.0336 -9.39766,2.0891 -18.66863,9.34207 -0.0291,0.82493 -0.0303,2.37917 -0.0537,3.39049 3.01626,-2.17948 13.23321,-4.76408 19.39055,-6.18567 -0.0857,-1.86658 -0.15297,-3.43676 -0.3173,-6.53449 -0.11506,-0.006 -0.23105,-0.0113 -0.35088,-0.0124 z m 0.12919,8.46667 c -4.00545,0.0382 -9.98321,1.78379 -18.89549,7.00422 -0.002,0.15595 -0.004,0.29499 -0.007,0.43512 4.80191,0.96372 13.88391,3.91876 19.72128,5.89008 -0.002,-0.24454 -0.0202,-0.42949 -0.0202,-0.68213 0,-6.46368 -0.0537,-9.63857 -0.16588,-12.63747 -0.20577,-0.008 -0.41584,-0.0119 -0.63304,-0.01 z m -18.93476,9.49193 c -0.004,0.30189 -0.014,0.48072 -0.014,0.87643 0,2.88423 -0.51974,7.32844 -1.17048,12.03027 5.50029,-2.47115 17.37123,-5.13391 21.0783,-5.93297 -0.0319,-0.58466 -0.0815,-1.10084 -0.0992,-1.74046 -4.51417,-2.20524 -10.87726,-4.20929 -19.79466,-5.23327 z m 15.68741,9.7193 c -3.76154,0.0359 -9.26572,1.58109 -17.30282,6.09213 -1.4485,9.70938 -3.33571,19.62361 -3.33571,19.62361 0,0 2.27889,11.01325 23.16603,7.21558 0,0 1.8984,2.4e-4 4.177,-1.89859 2.2786,-1.89884 1.13941,-4.93691 0.75965,-13.67152 -0.29115,-6.69633 -2.10617,-9.52742 -2.94763,-16.43155 -1.1219,-0.57271 -2.59155,-0.94803 -4.51652,-0.92966 z" />
  </g>
</svg>
