<?xml version="1.0" encoding="UTF-8" standalone="no"?>
<!-- Created with Inkscape (http://www.inkscape.org/) -->

<svg
   width="56.613628mm"
   height="200.9812mm"
   viewBox="0 0 56.613627 200.98121"
   version="1.1"
   id="svg1"
   sodipodi:docname="Dagger.svg"
   inkscape:version="1.4 (86a8ad7, 2024-10-11)"
   xmlns:inkscape="http://www.inkscape.org/namespaces/inkscape"
   xmlns:sodipodi="http://sodipodi.sourceforge.net/DTD/sodipodi-0.dtd"
   xmlns="http://www.w3.org/2000/svg"
   xmlns:svg="http://www.w3.org/2000/svg">
  <sodipodi:namedview
     id="namedview1"
     pagecolor="#505050"
     bordercolor="#ffffff"
     borderopacity="1"
     inkscape:showpageshadow="0"
     inkscape:pageopacity="0"
     inkscape:pagecheckerboard="1"
     inkscape:deskcolor="#505050"
     inkscape:document-units="mm"
     inkscape:zoom="0.4926417"
     inkscape:cx="-123.82224"
     inkscape:cy="342.03357"
     inkscape:window-width="1366"
     inkscape:window-height="697"
     inkscape:window-x="-8"
     inkscape:window-y="-8"
     inkscape:window-maximized="1"
     inkscape:current-layer="g12"
     showgrid="true">
    <inkscape:grid
       id="grid35"
       units="mm"
       originx="-24.193716"
       originy="-183.28657"
       spacingx="99.999999"
       spacingy="100.00001"
       empcolor="#0099e5"
       empopacity="0.30196078"
       color="#0099e5"
       opacity="0.14901961"
       empspacing="5"
       enabled="true"
       visible="true" />
  </sodipodi:namedview>
  <defs
     id="defs1">
    <inkscape:path-effect
       effect="mirror_symmetry"
       start_point="296.54991,-125.08549"
       end_point="296.54991,-102.48941"
       center_point="296.54991,-113.78745"
       id="path-effect14"
       is_visible="true"
       lpeversion="1.2"
       lpesatellites=""
       mode="free"
       discard_orig_path="false"
       fuse_paths="true"
       oposite_fuse="false"
       split_items="false"
       split_open="false"
       link_styles="false" />
    <inkscape:path-effect
       effect="mirror_symmetry"
       start_point="128.75596,-148.95187"
       end_point="128.75596,212.65192"
       center_point="128.75596,31.850025"
       id="path-effect13"
       is_visible="true"
       lpeversion="1.2"
       lpesatellites=""
       mode="free"
       discard_orig_path="false"
       fuse_paths="true"
       oposite_fuse="false"
       split_items="false"
       split_open="false"
       link_styles="false" />
    <inkscape:path-effect
       effect="mirror_symmetry"
       start_point="113.78759,-145.66211"
       end_point="113.78759,305.27734"
       center_point="113.78759,79.807617"
       id="path-effect12"
       is_visible="true"
       lpeversion="1.2"
       lpesatellites=""
       mode="free"
       discard_orig_path="false"
       fuse_paths="true"
       oposite_fuse="false"
       split_items="false"
       split_open="false"
       link_styles="false" />
    <inkscape:path-effect
       effect="bspline"
       id="path-effect8"
       is_visible="true"
       lpeversion="1.3"
       weight="33.333333"
       steps="2"
       helper_size="0"
       apply_no_weight="true"
       apply_with_weight="true"
       only_selected="false"
       uniform="false" />
    <inkscape:path-effect
       effect="bspline"
       id="path-effect7"
       is_visible="true"
       lpeversion="1.3"
       weight="33.333333"
       steps="2"
       helper_size="0"
       apply_no_weight="true"
       apply_with_weight="true"
       only_selected="false"
       uniform="false" />
    <inkscape:path-effect
       effect="bspline"
       id="path-effect6"
       is_visible="true"
       lpeversion="1.3"
       weight="33.333333"
       steps="2"
       helper_size="0"
       apply_no_weight="true"
       apply_with_weight="true"
       only_selected="false"
       uniform="false" />
  </defs>
  <g
     inkscape:label="Layer 1"
     inkscape:groupmode="layer"
     id="layer1"
     transform="translate(-82.415354,-35.849961)">
    <g
       id="g12"
       inkscape:path-effect="#path-effect12"
       transform="matrix(1.0671199,0,0,1.0671199,-10.703363,-16.259671)">
      <path
         style="fill:#000000;stroke-width:0.26629"
         d="m 113.78711,169.61328 c -26.184795,0.16593 -26.44336,1.19727 -26.44336,1.19727 l -0.08203,3.25976 26.525391,1.15039 26.52734,-1.15039 -0.082,-3.25976 c 0,0 -0.26052,-1.03134 -26.44531,-1.19727 z"
         id="path2"
         inkscape:original-d="m 121.26811,169.59063 c -33.617926,0 -33.92494,1.22008 -33.92494,1.22008 l -0.08148,3.25989 33.85291,1.468 z"
         sodipodi:nodetypes="ccccc" />
      <path
         style="fill:#000000;stroke-width:0.226708"
         d="m 113.78711,48.832031 c -9.68483,23.397498 -9.4746,80.724379 -12.24023,118.937499 l 2.73828,-0.13086 9.50195,-1.91992 9.50195,1.91992 2.73828,0.13086 c -2.76563,-38.21312 -2.5554,-95.540001 -12.24023,-118.937499 z m 0,43.214844 1.12891,4.775391 2.09765,60.990234 -3.22656,1.45312 -3.22656,-1.45312 2.09765,-60.990234 z"
         id="path1"
         sodipodi:nodetypes="ccccccccc"
         inkscape:original-d="m 113.80915,165.71504 0.54939,-6.1918 -3.798,-1.71125 2.09816,-60.989972 1.75148,-7.408868 V 47.405673 C 104.09262,69.816975 104.37117,128.75446 101.54753,167.76909 l 2.73819,-0.13029 z" />
      <path
         id="path10"
         style="fill:#000000;stroke-width:0.220432"
         d="m 113.78711,167.53516 -7.59961,1.74609 c 0,2.04649 0.0162,3.88994 0.0293,5.77344 l 7.57031,0.625 7.57031,-0.625 c 0.0131,-1.8835 0.0293,-3.72695 0.0293,-5.77344 z m 0,10.11914 -7.66406,1.19922 c 0.69421,14.5318 -1.79842,10.14357 2.85156,40.07617 l 2.55664,-0.78321 2.25586,-0.0664 2.25586,0.0664 2.55664,0.78321 c 4.64998,-29.9326 2.15931,-25.54437 2.85352,-40.07617 z"
         inkscape:original-d="m 115.55539,167.12901 -9.36779,2.15231 c 0,2.04649 0.0162,3.89043 0.0293,5.77393 l 9.33844,0.76924 z m 0,10.2494 -9.43256,1.47606 c 0.69421,14.5318 -1.79765,10.14223 2.85233,40.07483 l 2.55661,-0.78292 4.02363,-0.11708 z"
         sodipodi:nodetypes="ccccccccccc" />
      <path
         id="path12"
         style="stroke-width:0.224172"
         d="m 113.78711,219.90039 c -3.50478,0.19269 -6.68334,1.79932 -8.45508,4.30859 -1.89104,2.67809 -1.89104,5.97622 0,8.6543 1.77185,2.50912 4.95039,4.11599 8.45508,4.30859 3.50469,-0.1926 6.68518,-1.79947 8.45703,-4.30859 1.89104,-2.67808 1.89104,-5.97621 0,-8.6543 -1.77174,-2.50927 -4.95225,-4.1159 -8.45703,-4.30859 z m 0,4.42188 c 1.55,0.17853 2.93267,0.9299 3.72852,2.05664 0.91664,1.2982 0.91664,2.89711 0,4.19531 -0.79575,1.12688 -2.17844,1.87802 -3.72852,2.05664 -1.55008,-0.17862 -2.93082,-0.92976 -3.72656,-2.05664 -0.91665,-1.2982 -0.91665,-2.89711 0,-4.19531 0.79585,-1.12674 2.17656,-1.87811 3.72656,-2.05664 z"
         inkscape:original-d="m 114.49942,219.88017 a 10.586271,8.6557277 0 0 0 -9.16801,4.32806 10.586271,8.6557277 0 0 0 0,8.6557 10.586271,8.6557277 0 0 0 9.16801,4.32766 v -4.51888 a 5.1318177,4.1959646 0 0 1 -4.43923,-2.09791 5.1318177,4.1959646 0 0 1 0,-4.19582 5.1318177,4.1959646 0 0 1 4.43923,-2.09751 z" />
    </g>
  </g>
</svg>
