<?xml version="1.0" encoding="UTF-8" standalone="no"?>
<!-- Created with Inkscape (http://www.inkscape.org/) -->

<svg
   width="59.333527mm"
   height="476.92566mm"
   viewBox="0 0 59.333525 476.92566"
   version="1.1"
   id="svg1"
   sodipodi:docname="Greatclub.svg"
   inkscape:version="1.4 (86a8ad7, 2024-10-11)"
   xmlns:inkscape="http://www.inkscape.org/namespaces/inkscape"
   xmlns:sodipodi="http://sodipodi.sourceforge.net/DTD/sodipodi-0.dtd"
   xmlns="http://www.w3.org/2000/svg"
   xmlns:svg="http://www.w3.org/2000/svg">
  <sodipodi:namedview
     id="namedview1"
     pagecolor="#505050"
     bordercolor="#ffffff"
     borderopacity="1"
     inkscape:showpageshadow="0"
     inkscape:pageopacity="0"
     inkscape:pagecheckerboard="1"
     inkscape:deskcolor="#505050"
     inkscape:document-units="mm"
     inkscape:zoom="0.17417515"
     inkscape:cx="912.87422"
     inkscape:cy="743.50448"
     inkscape:window-width="1366"
     inkscape:window-height="697"
     inkscape:window-x="-8"
     inkscape:window-y="-8"
     inkscape:window-maximized="1"
     inkscape:current-layer="layer1"
     showgrid="true">
    <inkscape:grid
       id="grid35"
       units="mm"
       originx="-18.360374"
       originy="101.45065"
       spacingx="99.999999"
       spacingy="100.00001"
       empcolor="#0099e5"
       empopacity="0.30196078"
       color="#0099e5"
       opacity="0.14901961"
       empspacing="5"
       enabled="true"
       visible="true" />
  </sodipodi:namedview>
  <defs
     id="defs1">
    <inkscape:path-effect
       effect="mirror_symmetry"
       start_point="296.54991,-125.08549"
       end_point="296.54991,-102.48941"
       center_point="296.54991,-113.78745"
       id="path-effect14"
       is_visible="true"
       lpeversion="1.2"
       lpesatellites=""
       mode="free"
       discard_orig_path="false"
       fuse_paths="true"
       oposite_fuse="false"
       split_items="false"
       split_open="false"
       link_styles="false" />
    <inkscape:path-effect
       effect="mirror_symmetry"
       start_point="128.75596,-148.95187"
       end_point="128.75596,212.65192"
       center_point="128.75596,31.850025"
       id="path-effect13"
       is_visible="true"
       lpeversion="1.2"
       lpesatellites=""
       mode="free"
       discard_orig_path="false"
       fuse_paths="true"
       oposite_fuse="false"
       split_items="false"
       split_open="false"
       link_styles="false" />
    <inkscape:path-effect
       effect="mirror_symmetry"
       start_point="113.78759,-145.66211"
       end_point="113.78759,305.27734"
       center_point="113.78759,79.807617"
       id="path-effect12"
       is_visible="true"
       lpeversion="1.2"
       lpesatellites=""
       mode="free"
       discard_orig_path="false"
       fuse_paths="true"
       oposite_fuse="false"
       split_items="false"
       split_open="false"
       link_styles="false" />
    <inkscape:path-effect
       effect="bspline"
       id="path-effect8"
       is_visible="true"
       lpeversion="1.3"
       weight="33.333333"
       steps="2"
       helper_size="0"
       apply_no_weight="true"
       apply_with_weight="true"
       only_selected="false"
       uniform="false" />
    <inkscape:path-effect
       effect="bspline"
       id="path-effect7"
       is_visible="true"
       lpeversion="1.3"
       weight="33.333333"
       steps="2"
       helper_size="0"
       apply_no_weight="true"
       apply_with_weight="true"
       only_selected="false"
       uniform="false" />
    <inkscape:path-effect
       effect="bspline"
       id="path-effect6"
       is_visible="true"
       lpeversion="1.3"
       weight="33.333333"
       steps="2"
       helper_size="0"
       apply_no_weight="true"
       apply_with_weight="true"
       only_selected="false"
       uniform="false" />
  </defs>
  <g
     inkscape:label="Layer 1"
     inkscape:groupmode="layer"
     id="layer1"
     transform="translate(-76.582012,248.88726)">
    <path
       id="path1"
       style="fill:#000000;stroke-width:0.264583"
       d="m 113.34254,-248.87803 c -2.19615,-0.0592 -4.77935,0.14878 -8.7669,1.14566 -10.633432,2.65836 -22.628906,0.80134 -26.990604,17.73432 -0.985411,3.82556 -3.069556,6.55304 4.821927,34.25734 6.568021,23.05808 4.949899,48.63463 3.427181,59.76276 -1.820326,13.30307 2.36333,28.02253 3.11764,39.972755 1.820126,28.835475 1.171459,48.779814 1.292427,50.594328 0.379767,5.696492 0.591887,11.860332 1.918229,21.285522 1.239656,8.809184 0.621361,17.7328469 2.53938,22.4683961 1.538151,3.7976625 3.927706,41.3084779 3.908806,53.9837849 -0.01908,12.80082 1.139531,13.069455 1.519284,19.905245 0.37976,6.835794 -2.194276,6.901226 0.84388,16.395382 0.73679,2.302469 1.22586,5.969227 1.59887,10.092407 5.80034,-0.291185 14.96296,0.146385 21.09845,0.639237 0.0694,-3.650593 0.2552,-6.158892 0.98909,-11.6427 1.21943,-9.111935 3.88974,-22.542428 4.26951,-30.517517 0.37977,-7.975092 0.36093,-13.18838 -1.5379,-16.986043 -1.89884,-3.797662 2.63085,-9.106335 2.63085,-15.562358 0,-6.456027 -3.23335,-14.110899 -1.14463,-28.2571896 2.00006,-13.5458064 5.03995,-18.4677024 4.66018,-22.6451294 -0.37976,-4.17743 -0.71659,-8.729165 -0.57103,-12.122774 0.17636,-4.112269 1.81728,-5.177875 0.7829,-12.797669 -0.89775,-6.613327 1.87988,-15.491821 1.12035,-20.808549 -0.25328,-1.772987 -3.09807,-19.528545 -2.10633,-43.726528 0.34826,-8.49737 -1.51366,-42.01654 -1.35548,-73.84976 0.0399,-8.03319 -1.54494,-16.24126 0.5054,-23.35413 5.22387,-18.12224 4.50933,-18.29789 2.48098,-23.04355 -3.26845,-7.64708 -3.13316,-7.57681 -5.58208,-7.81451 l -9.02633,-4.65191 c -2.43881,-0.0712 -4.24789,-0.3976 -6.44405,-0.45682 z m 10.30532,351.05764 c -4.16308,0.0412 -10.67291,0.37691 -20.76928,1.27951 0.0624,1.01032 0.0663,2.00403 0.11782,3.03289 3.30464,-0.74198 15.3949,2.04218 20.58738,3.57549 0.0271,-3.78472 0.0482,-5.77542 0.0641,-7.88789 z m -20.49281,8.41137 c 0.0868,2.30279 0.0836,3.49135 0.14366,5.65909 5.6982,-1.24736 17.29081,-1.25192 20.34036,-0.85577 -0.0192,-0.95697 -0.0404,-1.592 -0.0455,-2.85977 -2.60771,-0.62826 -8.34103,-1.37995 -20.43855,-1.94355 z m 19.66805,7.62434 c -2.68404,0.033 -8.1912,0.80931 -19.38228,3.64526 0.0508,2.41467 0.16413,5.95783 0.1881,7.42073 0.007,0.45412 -0.003,0.90111 0.002,1.35599 5.43605,-2.34578 13.12523,-6.3058 19.84375,-7.89616 0.21592,-1.38878 0.23698,-2.77105 0.20981,-4.50618 -0.25009,-0.0157 -0.5317,-0.0237 -0.86093,-0.0196 z m 0.52968,9.73584 c -4.10733,0.77942 -10.74786,2.08037 -19.71714,6.14743 0.001,0.72854 0.004,1.42862 0.003,2.15646 5.99232,1.33921 14.54263,4.26235 19.0655,6.10918 l 0.0326,-0.10542 c -0.0303,-1.47768 -0.0463,-1.53568 -0.11523,-3.88245 -0.16838,-5.72484 0.0225,-7.34539 0.35243,-10.09292 z m -0.64905,14.41307 -0.0966,0.31523 c 0,0 0.0801,-0.0917 0.10026,-0.1142 0.002,0.0885 0.0104,-0.28204 0.0124,-0.19534 -0.004,-0.002 -0.012,-0.004 -0.016,-0.006 z m -19.06085,-2.77192 c -0.005,1.75948 0.0603,2.65775 0.0651,4.39301 2.79742,-1.20798 8.60019,-0.82565 13.80071,-0.9281 -3.25438,-1.82878 -7.69989,-3.16824 -13.86582,-3.46491 z m 13.54284,5.28908 c -3.44562,0.0659 -7.85413,1.08282 -13.48807,3.56929 0.0191,1.40911 0.0738,2.76743 0.11628,4.1429 6.1448,1.51006 15.47075,4.75729 19.37556,6.14898 -0.2276,-5.10813 -0.34018,-8.52994 -0.38758,-11.20396 -0.62438,-0.82328 -1.39755,-1.62045 -2.27841,-2.38487 -0.99899,-0.19502 -2.1053,-0.29589 -3.33778,-0.27234 z m -12.89224,10.64897 c -0.12627,0.001 -0.25326,0.008 -0.37982,0.0109 0.10516,2.07434 0.24921,4.0946 0.47801,6.00118 0.73304,6.10876 0.75424,3.80471 0.51108,8.31577 5.0399,-3.23455 14.03748,-4.81843 18.37562,-6.7014 -0.0221,-0.43441 0.12469,0.37453 0.10129,-0.0951 -0.0436,-0.87298 -0.0499,-1.19601 -0.0868,-1.96887 -5.4723,-3.16254 -12.00123,-5.63841 -18.99936,-5.56245 z m 18.91771,11.10216 c -3.6073,-0.0336 -9.39766,2.0891 -18.66863,9.34207 -0.0291,0.82493 0.34896,1.24022 0.32556,2.25154 3.01626,-2.17948 12.75882,-5.66635 18.91616,-7.08794 -0.0857,-1.86658 -0.0579,-1.39554 -0.22221,-4.49327 -0.11506,-0.006 -0.23105,-0.0113 -0.35088,-0.0124 z m -1.05782,9.55859 c -4.00545,0.0382 -8.7962,0.69187 -17.70848,5.9123 -0.002,0.15595 -0.004,0.29499 -0.007,0.43512 4.80191,0.96372 13.88391,3.91876 19.72128,5.89008 -0.002,-0.24454 -0.0202,-0.42949 -0.0202,-0.68213 0,-6.46368 -0.006,-7.69192 -0.11834,-10.69082 -0.20577,-0.008 -0.46337,-0.77137 -0.68057,-0.76947 z m -17.74775,8.4 c -0.004,0.30189 -0.0145,0.48073 -0.0145,0.87644 0,2.88423 -0.51973,7.32844 -1.17047,12.03027 5.50029,-2.47115 17.37123,-5.13391 21.0783,-5.93297 -0.0319,-0.58466 -0.12338,-0.46264 -0.14108,-1.10226 -4.51408,-2.20519 -10.83516,-4.84745 -19.75228,-5.87148 z m 15.72049,11.61583 c -3.76154,0.0359 -9.29879,-0.31543 -17.33589,4.19561 -1.4485,9.70938 -3.335718,19.62361 -3.335718,19.62361 0,0 2.278888,11.01325 23.166028,7.21558 0,0 1.89841,2.4e-4 4.17701,-1.89859 2.2786,-1.89884 1.1394,-4.93691 0.75964,-13.67152 -0.29115,-6.69633 -1.16669,-7.37872 -2.00815,-14.28285 -1.1219,-0.57271 -3.49795,-1.20021 -5.42292,-1.18184 z" />
  </g>
</svg>
