<?xml version="1.0" encoding="UTF-8" standalone="no"?>
<!-- Created with Inkscape (http://www.inkscape.org/) -->

<svg
   width="60.039684mm"
   height="243.04279mm"
   viewBox="0 0 60.039683 243.04279"
   version="1.1"
   id="svg1"
   sodipodi:docname="Handaxe.svg"
   inkscape:version="1.4 (86a8ad7, 2024-10-11)"
   xmlns:inkscape="http://www.inkscape.org/namespaces/inkscape"
   xmlns:sodipodi="http://sodipodi.sourceforge.net/DTD/sodipodi-0.dtd"
   xmlns="http://www.w3.org/2000/svg"
   xmlns:svg="http://www.w3.org/2000/svg">
  <sodipodi:namedview
     id="namedview1"
     pagecolor="#505050"
     bordercolor="#ffffff"
     borderopacity="1"
     inkscape:showpageshadow="0"
     inkscape:pageopacity="0"
     inkscape:pagecheckerboard="1"
     inkscape:deskcolor="#505050"
     inkscape:document-units="mm"
     inkscape:zoom="0.4926417"
     inkscape:cx="80.179977"
     inkscape:cy="76.120231"
     inkscape:window-width="1366"
     inkscape:window-height="697"
     inkscape:window-x="-8"
     inkscape:window-y="-8"
     inkscape:window-maximized="1"
     inkscape:current-layer="layer1"
     showgrid="true">
    <inkscape:grid
       id="grid35"
       units="mm"
       originx="-23.449598"
       originy="-139.70686"
       spacingx="99.999999"
       spacingy="100.00001"
       empcolor="#0099e5"
       empopacity="0.30196078"
       color="#0099e5"
       opacity="0.14901961"
       empspacing="5"
       enabled="true"
       visible="true" />
  </sodipodi:namedview>
  <defs
     id="defs1">
    <inkscape:path-effect
       effect="mirror_symmetry"
       start_point="296.54991,-125.08549"
       end_point="296.54991,-102.48941"
       center_point="296.54991,-113.78745"
       id="path-effect14"
       is_visible="true"
       lpeversion="1.2"
       lpesatellites=""
       mode="free"
       discard_orig_path="false"
       fuse_paths="true"
       oposite_fuse="false"
       split_items="false"
       split_open="false"
       link_styles="false" />
    <inkscape:path-effect
       effect="mirror_symmetry"
       start_point="128.75596,-148.95187"
       end_point="128.75596,212.65192"
       center_point="128.75596,31.850025"
       id="path-effect13"
       is_visible="true"
       lpeversion="1.2"
       lpesatellites=""
       mode="free"
       discard_orig_path="false"
       fuse_paths="true"
       oposite_fuse="false"
       split_items="false"
       split_open="false"
       link_styles="false" />
    <inkscape:path-effect
       effect="mirror_symmetry"
       start_point="113.78759,-145.66211"
       end_point="113.78759,305.27734"
       center_point="113.78759,79.807617"
       id="path-effect12"
       is_visible="true"
       lpeversion="1.2"
       lpesatellites=""
       mode="free"
       discard_orig_path="false"
       fuse_paths="true"
       oposite_fuse="false"
       split_items="false"
       split_open="false"
       link_styles="false" />
    <inkscape:path-effect
       effect="bspline"
       id="path-effect8"
       is_visible="true"
       lpeversion="1.3"
       weight="33.333333"
       steps="2"
       helper_size="0"
       apply_no_weight="true"
       apply_with_weight="true"
       only_selected="false"
       uniform="false" />
    <inkscape:path-effect
       effect="bspline"
       id="path-effect7"
       is_visible="true"
       lpeversion="1.3"
       weight="33.333333"
       steps="2"
       helper_size="0"
       apply_no_weight="true"
       apply_with_weight="true"
       only_selected="false"
       uniform="false" />
    <inkscape:path-effect
       effect="bspline"
       id="path-effect6"
       is_visible="true"
       lpeversion="1.3"
       weight="33.333333"
       steps="2"
       helper_size="0"
       apply_no_weight="true"
       apply_with_weight="true"
       only_selected="false"
       uniform="false" />
  </defs>
  <g
     inkscape:label="Layer 1"
     inkscape:groupmode="layer"
     id="layer1"
     transform="translate(-81.671236,7.7297519)">
    <path
       style="fill:#000000;stroke-width:0.337218"
       d="m 105.05081,210.04765 c -1.78534,0.74284 -3.57286,1.48053 -5.362983,2.21175 -4.099683,1.6654 -8.219167,3.28065 -12.342399,4.88653 3.351467,10.29866 4.515634,15.83958 9.99939,17.49764 13.168222,3.98153 27.191212,-11.0304 18.288802,-12.6137 0,0 -4.70669,1.6131 -9.97045,-10.50996 -0.21232,-0.489 -0.40677,-0.98288 -0.61236,-1.47226 z"
       id="path21" />
    <path
       style="fill:#000000;stroke-width:0.337218"
       d="m 100.248,193.82849 c -2.056338,0.80985 -4.103114,1.64755 -6.078182,2.64118 -2.24798,1.15225 -4.454961,2.38716 -6.553605,3.79667 -1.491109,1.02427 -2.96014,2.08162 -4.364592,3.22202 0.705928,3.43432 1.668821,6.46077 2.923336,10.07742 0.202495,0.58378 0.314413,0.97818 0.501778,1.53531 4.075218,-1.58749 8.146728,-3.18473 12.198739,-4.83071 1.785856,-0.72946 3.569066,-1.46553 5.350056,-2.20659 -1.63443,-4.13783 -3.00386,-8.5292 -3.97753,-14.2353 z"
       id="path23" />
    <path
       style="fill:#000000;stroke-width:0.337218"
       d="m 99.463551,187.86864 c -2.47207,0.0303 -4.942361,0.14634 -7.4104,0.28629 -3.132572,0.17647 -6.258729,0.44536 -9.381856,0.74208 -0.256026,0.0253 -0.51144,0.0567 -0.767395,0.0827 0.11462,4.96672 0.410101,8.84895 0.929142,12.099 1.161857,-0.89713 2.356697,-1.75115 3.566707,-2.58279 2.173709,-1.46249 4.460721,-2.74253 6.789767,-3.93774 2.188246,-1.10301 4.462036,-2.01952 6.742224,-2.91352 -0.173519,-1.19609 -0.326571,-2.46339 -0.468189,-3.776 z"
       id="path28" />
    <path
       style="fill:#000000;stroke-width:0.337218"
       d="m 98.762819,176.38046 c -0.186534,0.12335 -0.414251,0.23091 -0.697115,0.30747 l -1.450041,0.39223 c -3.174924,0.86734 -6.347252,1.74555 -9.497611,2.69906 -1.756777,0.54085 -3.510325,1.09492 -5.250326,1.68775 -0.01449,1.91199 -0.01035,3.68173 0.0083,5.35523 0.19753,-0.02 0.394641,-0.044 0.592212,-0.0636 3.150292,-0.29921 6.303693,-0.57033 9.463505,-0.74828 2.442887,-0.13839 4.887761,-0.2536 7.334436,-0.28784 -0.249197,-2.77978 -0.403239,-5.94536 -0.503328,-9.34206 z"
       id="path30" />
    <path
       style="fill:#000000;stroke-width:0.337218"
       d="m 82.43565,165.57595 c -0.22625,3.93866 -0.388814,7.12491 -0.448551,9.26507 -0.04437,1.58958 -0.05939,2.94278 -0.0801,4.34185 1.519563,-0.50648 3.048438,-0.98542 4.579049,-1.45676 3.17223,-0.96038 6.366726,-1.84478 9.563757,-2.71818 0.484877,-0.13124 0.969298,-0.26252 1.454175,-0.39377 0.256603,-0.0695 0.490349,-0.0976 0.698149,-0.093 0.196392,0.004 0.367773,0.0402 0.516764,0.0966 -0.01828,-0.91744 -0.06198,-1.72569 -0.0677,-2.69802 -0.0093,-1.58087 0.01468,-3.43959 0.05891,-5.47305 -0.265333,-0.0422 -0.530478,-0.0853 -0.795817,-0.12558 -2.96429,-0.43229 -5.962668,-0.52748 -8.952425,-0.62528 -2.174826,-0.0691 -4.350469,-0.0978 -6.526217,-0.11989 z"
       id="path32" />
    <path
       style="fill:#000000;stroke-width:0.337218"
       d="m 99.059442,156.59872 c -3.205001,0.35967 -6.409468,0.7228 -9.610783,1.11466 -2.196671,0.27157 -4.394574,0.53584 -6.589262,0.82424 -0.08864,1.4629 -0.215946,3.56368 -0.294039,4.89066 2.155934,0.0224 4.311749,0.0519 6.466789,0.1204 3.074314,0.1008 6.156794,0.20173 9.204606,0.64854 0.178279,0.0272 0.356547,0.0569 0.534851,0.0848 0.0619,-2.25361 0.183821,-5.05106 0.287838,-7.68325 z"
       id="path34" />
    <path
       style="fill:#000000;stroke-width:0.337218"
       d="m 84.015915,148.64675 c -0.190026,0.001 -0.379991,0.006 -0.569991,0.009 -0.150632,2.4712 -0.318235,5.45161 -0.455269,7.69876 2.063436,-0.26828 4.129473,-0.51779 6.194454,-0.77308 3.31621,-0.40594 6.635877,-0.78162 9.955981,-1.15393 0.03844,-0.9206 0.104347,-2.14684 0.146245,-3.10111 -0.255675,-0.15077 -0.513548,-0.29843 -0.775147,-0.43925 -1.509671,-0.72692 -3.13536,-1.16454 -4.768184,-1.5105 -2.478504,-0.47536 -5.008509,-0.58411 -7.524089,-0.6966 -0.734796,-0.0275 -1.46939,-0.0375 -2.204,-0.0331 z"
       id="path37" />
    <path
       style="fill:#000000;stroke-width:0.337218"
       d="m 99.402573,138.55383 c -0.74632,-0.011 -1.495701,0.0206 -2.247925,0.0925 -2.285718,0.18038 -4.56144,0.48938 -6.790283,1.04024 -1.821593,0.48572 -3.625079,1.06085 -5.310787,1.91823 -0.412204,0.20777 -0.822079,0.42071 -1.228865,0.63924 -0.08408,1.40772 -0.169083,2.90193 -0.251665,4.26382 0.156781,-0.002 0.313457,-0.008 0.470256,-0.009 0.757453,-0.004 1.515074,0.006 2.272729,0.0351 2.633992,0.11812 5.282527,0.23662 7.876522,0.74155 1.783402,0.38328 3.557603,0.86492 5.206918,1.65933 0.144124,-3.18562 0.328643,-6.92943 0.494543,-10.36474 -0.163793,-0.007 -0.327378,-0.0141 -0.491443,-0.0165 z"
       id="path39" />
    <path
       style="fill:#000000;stroke-width:0.337218"
       d="m 83.009259,19.363685 c 0,0 -3.470112,37.598256 0.766361,45.389477 3.779337,6.95051 1.968954,44.952598 0.196887,74.992318 0.038,-0.0192 0.07567,-0.0392 0.113688,-0.0584 1.816924,-0.92565 3.759818,-1.54932 5.723165,-2.07584 2.354615,-0.58659 4.75976,-0.91358 7.175273,-1.10639 0.841116,-0.079 1.666002,-0.11211 2.484603,-0.0982 0.176156,0.003 0.351426,0.0144 0.527099,0.0217 1.518275,-31.30949 3.441185,-69.183574 0,-73.939669 -4.954016,-6.846995 1.930115,-42.47441 1.930115,-42.47441 z"
       id="path1" />
    <path
       id="path2"
       style="fill:#000000;stroke-width:0.264583"
       d="m 139.56662,-7.7297519 c -3.85527,3.4723419 -11.16521,3.2654338 -11.16521,3.2654338 l -23.06474,-0.2335775 c 0,0 -18.595042,-0.78611 -19.737296,-0.7384562 -0.666567,0.027809 -3.153646,2.5127151 -3.153646,2.5127151 0,0 0.06541,11.7415685 -0.0017,13.4199137 -0.06713,1.678345 1.74528,3.536467 1.74528,3.536467 l 19.669432,0.287838 c 27.25946,-24.0037466 22.38195,44.624096 22.76709,44.833956 2.72307,1.483785 5.11991,3.468076 6.72569,4.917012 0.0255,-0.123258 0.0533,-0.249622 0.0785,-0.372587 0.36237,-5.165051 3.03435,-44.682868 0.95498,-64.21210111 -0.0695,-0.65308659 2.84944,-1.73477779 2.84944,-1.73477779 0,0 4.65613,24.6898789 -3.80442,65.9468789 -0.005,0.07829 -0.023,0.35793 -0.0274,0.419613 1.08813,0.984973 1.865,1.758032 1.865,1.758032 11.3007,-40.752879 4.29896,-73.6063599 4.29896,-73.6063599 z"
       sodipodi:nodetypes="cccscsccsccccccccc" />
  </g>
</svg>
