<?xml version="1.0" encoding="UTF-8" standalone="no"?>
<!-- Created with Inkscape (http://www.inkscape.org/) -->

<svg
   width="198.31731mm"
   height="292.48413mm"
   viewBox="0 0 198.31729 292.48413"
   version="1.1"
   id="svg1"
   sodipodi:docname="Whip.svg"
   inkscape:version="1.4 (86a8ad7, 2024-10-11)"
   xmlns:inkscape="http://www.inkscape.org/namespaces/inkscape"
   xmlns:sodipodi="http://sodipodi.sourceforge.net/DTD/sodipodi-0.dtd"
   xmlns="http://www.w3.org/2000/svg"
   xmlns:svg="http://www.w3.org/2000/svg">
  <sodipodi:namedview
     id="namedview1"
     pagecolor="#505050"
     bordercolor="#ffffff"
     borderopacity="1"
     inkscape:showpageshadow="0"
     inkscape:pageopacity="0"
     inkscape:pagecheckerboard="1"
     inkscape:deskcolor="#505050"
     inkscape:document-units="mm"
     inkscape:zoom="0.4926417"
     inkscape:cx="2.0298728"
     inkscape:cy="563.2897"
     inkscape:window-width="1366"
     inkscape:window-height="697"
     inkscape:window-x="-8"
     inkscape:window-y="-8"
     inkscape:window-maximized="1"
     inkscape:current-layer="layer1"
     showgrid="true">
    <inkscape:grid
       id="grid35"
       units="mm"
       originx="-25.564157"
       originy="-78.802181"
       spacingx="99.999999"
       spacingy="100.00001"
       empcolor="#0099e5"
       empopacity="0.30196078"
       color="#0099e5"
       opacity="0.14901961"
       empspacing="5"
       enabled="true"
       visible="true" />
  </sodipodi:namedview>
  <defs
     id="defs1">
    <inkscape:path-effect
       effect="mirror_symmetry"
       start_point="92.848082,131.84981"
       end_point="92.848082,221.82021"
       center_point="92.848082,176.83501"
       id="path-effect1"
       is_visible="true"
       lpeversion="1.2"
       lpesatellites=""
       mode="free"
       discard_orig_path="false"
       fuse_paths="true"
       oposite_fuse="false"
       split_items="false"
       split_open="false"
       link_styles="false" />
    <inkscape:path-effect
       effect="mirror_symmetry"
       start_point="296.54991,-125.08549"
       end_point="296.54991,-102.48941"
       center_point="296.54991,-113.78745"
       id="path-effect14"
       is_visible="true"
       lpeversion="1.2"
       lpesatellites=""
       mode="free"
       discard_orig_path="false"
       fuse_paths="true"
       oposite_fuse="false"
       split_items="false"
       split_open="false"
       link_styles="false" />
    <inkscape:path-effect
       effect="mirror_symmetry"
       start_point="128.75596,-148.95187"
       end_point="128.75596,212.65192"
       center_point="128.75596,31.850025"
       id="path-effect13"
       is_visible="true"
       lpeversion="1.2"
       lpesatellites=""
       mode="free"
       discard_orig_path="false"
       fuse_paths="true"
       oposite_fuse="false"
       split_items="false"
       split_open="false"
       link_styles="false" />
    <inkscape:path-effect
       effect="mirror_symmetry"
       start_point="113.78759,-145.66211"
       end_point="113.78759,305.27734"
       center_point="113.78759,79.807617"
       id="path-effect12"
       is_visible="true"
       lpeversion="1.2"
       lpesatellites=""
       mode="free"
       discard_orig_path="false"
       fuse_paths="true"
       oposite_fuse="false"
       split_items="false"
       split_open="false"
       link_styles="false" />
    <inkscape:path-effect
       effect="bspline"
       id="path-effect8"
       is_visible="true"
       lpeversion="1.3"
       weight="33.333333"
       steps="2"
       helper_size="0"
       apply_no_weight="true"
       apply_with_weight="true"
       only_selected="false"
       uniform="false" />
    <inkscape:path-effect
       effect="bspline"
       id="path-effect7"
       is_visible="true"
       lpeversion="1.3"
       weight="33.333333"
       steps="2"
       helper_size="0"
       apply_no_weight="true"
       apply_with_weight="true"
       only_selected="false"
       uniform="false" />
    <inkscape:path-effect
       effect="bspline"
       id="path-effect6"
       is_visible="true"
       lpeversion="1.3"
       weight="33.333333"
       steps="2"
       helper_size="0"
       apply_no_weight="true"
       apply_with_weight="true"
       only_selected="false"
       uniform="false" />
  </defs>
  <g
     inkscape:label="Layer 1"
     inkscape:groupmode="layer"
     id="layer1"
     transform="translate(-83.785794,68.634429)">
    <path
       style="fill:#000000;stroke-width:0.264583"
       d="m 93.016652,202.75228 c -1.203581,0.92683 -2.392984,1.87285 -3.550171,2.85719 -0.939118,0.80482 -1.87616,1.61321 -2.754354,2.48512 -0.164447,0.15943 -0.331389,0.31627 -0.49661,0.47491 l -5.17e-4,0.96583 -1.33997,2.22467 -0.07028,6.0234 1.44539,2.14613 c 7.7e-5,3.04416 2.508798,3.88536 6.59753,3.92017 4.088731,-0.0348 6.597453,-0.87601 6.59753,-3.92017 l 1.44746,-2.14613 -0.0724,-6.0234 -1.33997,-2.22467 -10e-4,-1.91565 c -0.633531,-0.57225 -1.287692,-1.121 -1.949751,-1.65984 -0.933456,-0.77499 -1.918989,-1.48031 -2.920752,-2.16318 -0.527049,-0.35358 -1.058689,-0.70054 -1.592151,-1.04438 z"
       id="path7" />
    <path
       style="fill:#000000;stroke-width:0.264583"
       d="m 99.474656,198.39027 c -0.78193,0.45056 -1.554453,0.91725 -2.305803,1.418 -0.967885,0.63726 -1.923515,1.29301 -2.86029,1.97508 0.386229,0.25132 0.773439,0.50131 1.156001,0.75809 1.03711,0.70729 2.057322,1.43807 3.024105,2.24017 0.332597,0.27084 0.662002,0.54526 0.989604,0.82218 z"
       id="path5" />
    <path
       style="fill:#000000;stroke-width:0.264583"
       d="m 86.220684,198.49001 -0.0041,7.9747 c 0.733581,-0.69173 1.495812,-1.35248 2.261361,-2.00866 1.038083,-0.8834 2.104712,-1.73268 3.181201,-2.56883 -0.147174,-0.0932 -0.293524,-0.1876 -0.4408,-0.28061 -0.992559,-0.63536 -1.994148,-1.25672 -2.998783,-1.87275 -0.670432,-0.40786 -1.33462,-0.82587 -1.998845,-1.24385 z"
       id="path8" />
    <path
       style="fill:#000000;stroke-width:0.264583"
       d="m 93.39699,191.28218 c -0.963302,0.55399 -1.917107,1.12795 -2.819983,1.77715 -0.712587,0.5472 -1.389893,1.1359 -2.046903,1.74873 -0.567832,0.51728 -1.142141,1.02766 -1.713074,1.54151 -0.160721,0.13945 -0.323567,0.27712 -0.483691,0.41755 0.006,0.004 0.01209,0.007 0.01809,0.0114 0.886137,0.55542 1.768872,1.11679 2.662369,1.66037 1.010331,0.61954 2.017113,1.24414 3.01532,1.88309 0.308249,0.19467 0.615265,0.39135 0.922941,0.58704 1.104761,-0.82124 2.231582,-1.61211 3.381189,-2.36936 1.01843,-0.67866 2.072511,-1.3007 3.140377,-1.89756 v -0.33848 c -0.437666,-0.39065 -0.876186,-0.78032 -1.315682,-1.16892 -0.495135,-0.439 -0.990595,-0.87721 -1.489832,-1.31155 -0.493335,-0.44478 -1.010024,-0.86292 -1.531172,-1.27434 -0.560858,-0.44529 -1.14823,-0.8552 -1.735812,-1.26401 -0.0013,-9.3e-4 -0.0028,-0.002 -0.0041,-0.003 z"
       id="path23" />
    <path
       style="fill:#000000;stroke-width:0.264583"
       d="m 99.469488,188.27668 c -0.983064,0.44168 -1.959939,0.89725 -2.928504,1.36994 -0.551021,0.27324 -1.10101,0.5489 -1.647444,0.83147 0.401278,0.28425 0.799762,0.57263 1.18494,0.8785 0.540078,0.42644 1.074912,0.85968 1.586467,1.32034 0.502245,0.43705 1.000999,0.87808 1.499133,1.31981 0.102998,0.0911 0.205582,0.18269 0.308508,0.27389 z"
       id="path21" />
    <path
       style="fill:#000000;stroke-width:0.264583"
       d="m 86.226369,187.29069 -0.0036,7.55044 c 0.428694,-0.38462 0.858432,-0.76809 1.28416,-1.156 0.687367,-0.64218 1.398881,-1.25589 2.144055,-1.82986 0.750225,-0.54372 1.539004,-1.02987 2.336291,-1.5012 -0.172385,-0.10821 -0.343926,-0.21787 -0.517281,-0.32453 -0.659805,-0.41174 -1.325019,-0.81428 -2.004529,-1.19269 -0.690362,-0.37961 -1.39773,-0.72758 -2.113566,-1.05627 -0.372649,-0.16932 -0.74819,-0.33157 -1.125512,-0.48989 z"
       id="path24" />
    <path
       style="fill:#000000;stroke-width:0.264583"
       d="m 92.835784,180.48232 c -0.07925,0.0492 -0.15907,0.0974 -0.238228,0.14676 -0.533015,0.33387 -1.062337,0.67341 -1.582332,1.02733 -0.512436,0.35032 -1.017282,0.71172 -1.516187,1.08107 -0.509238,0.37553 -1.017259,0.75318 -1.507918,1.1529 -0.398836,0.3131 -0.795936,0.62793 -1.188558,0.94878 -0.191051,0.15914 -0.383216,0.31688 -0.575159,0.47491 v 0.33589 c 0.590164,0.24071 1.178172,0.48648 1.758549,0.75035 0.751306,0.34559 1.494491,0.71036 2.218986,1.10949 0.698431,0.38943 1.382637,0.80216 2.060856,1.22576 0.410161,0.25243 0.816732,0.51108 1.219564,0.77515 0.786938,-0.421 1.581247,-0.82825 2.380733,-1.22473 1.028073,-0.50199 2.064739,-0.98603 3.108854,-1.45366 0.118462,-0.0533 0.237892,-0.1041 0.357085,-0.15554 -0.08266,-0.10308 -0.166037,-0.20561 -0.251665,-0.30593 -0.332553,-0.38433 -0.685558,-0.74997 -1.037146,-1.11673 -0.405998,-0.42357 -0.822013,-0.83717 -1.244885,-1.24385 -0.454008,-0.43292 -0.905086,-0.86895 -1.361674,-1.29914 -0.459569,-0.43262 -0.921045,-0.86309 -1.399914,-1.27435 -0.390554,-0.33048 -0.793285,-0.64565 -1.200961,-0.95446 z"
       id="path28" />
    <path
       style="fill:#000000;stroke-width:0.264583"
       d="m 99.463803,177.1032 c -0.05711,0.0212 -0.115164,0.0398 -0.172082,0.0615 -0.570413,0.21878 -1.136181,0.4496 -1.693437,0.70022 -0.569276,0.25111 -1.13113,0.51723 -1.683101,0.8046 -0.556513,0.28979 -1.106859,0.59179 -1.639177,0.92449 -0.01826,0.0112 -0.03652,0.0224 -0.05478,0.0336 0.272601,0.21427 0.541597,0.43305 0.806153,0.65733 0.496033,0.42673 0.97503,0.87202 1.451074,1.32085 0.460464,0.43384 0.915199,0.87339 1.373043,1.30999 0.43738,0.42109 0.8683,0.84878 1.288293,1.28726 0.10953,0.11427 0.218425,0.2295 0.327629,0.34417 z"
       id="path26" />
    <path
       style="fill:#000000;stroke-width:0.264583"
       d="m 86.232053,176.62984 -0.0036,6.72414 c 0.274272,-0.2203 0.548146,-0.44113 0.824755,-0.65836 0.502646,-0.40918 1.022613,-0.79615 1.544092,-1.1808 0.513372,-0.38017 1.033378,-0.75143 1.560629,-1.11208 0.44607,-0.3037 0.901469,-0.59323 1.357539,-0.8816 -0.229656,-0.1603 -0.459774,-0.31989 -0.691947,-0.47646 -0.549253,-0.38038 -1.129423,-0.71244 -1.714624,-1.03353 -0.631592,-0.3434 -1.277998,-0.65736 -1.929598,-0.96066 -0.313851,-0.14456 -0.630037,-0.28381 -0.947229,-0.42065 z"
       id="path29" />
    <path
       style="fill:#000000;stroke-width:0.264583"
       d="m 94.001088,169.47524 c -0.425907,0.29123 -0.846945,0.58943 -1.259355,0.89969 -0.51135,0.38775 -1.026005,0.77169 -1.519804,1.18184 -0.472784,0.4001 -0.946164,0.80034 -1.399398,1.22266 -0.463263,0.43811 -0.926705,0.87588 -1.384411,1.31982 -0.428587,0.41508 -0.859702,0.82812 -1.273824,1.2578 -0.0068,0.007 -0.01338,0.0142 -0.02015,0.0212 0.22521,0.0986 0.452581,0.19215 0.675928,0.29507 0.681951,0.31766 1.359088,0.64692 2.020031,1.00666 0.625608,0.34369 1.245411,0.69893 1.832964,1.10536 0.417364,0.28171 0.829658,0.57117 1.238684,0.86506 0.190136,-0.1169 0.379737,-0.23466 0.569991,-0.3514 0.562619,-0.35118 1.143746,-0.67036 1.731677,-0.97668 0.580858,-0.30262 1.172459,-0.58237 1.771468,-0.84698 0.580025,-0.26082 1.169071,-0.50069 1.762683,-0.72864 0.236643,-0.0902 0.475841,-0.17368 0.715202,-0.25631 l -5.17e-4,-0.78187 c -0.09672,-0.11498 -0.193359,-0.23015 -0.293005,-0.34261 -0.318267,-0.35994 -0.65684,-0.70108 -0.993221,-1.04387 -0.384908,-0.39904 -0.780217,-0.78714 -1.177189,-1.17408 -0.442983,-0.43028 -0.893374,-0.85311 -1.353923,-1.26453 -0.454313,-0.41229 -0.922581,-0.80828 -1.391646,-1.20354 -0.0833,-0.0692 -0.168348,-0.13612 -0.252181,-0.20464 z"
       id="path33" />
    <path
       style="fill:#000000;stroke-width:0.264583"
       d="m 99.458119,166.73226 c -0.557556,0.19993 -1.111005,0.4116 -1.653129,0.6506 -0.615869,0.26951 -1.230639,0.54402 -1.823145,0.86248 -0.213745,0.12007 -0.42447,0.24477 -0.635103,0.37001 0.441818,0.37269 0.882267,0.74697 1.310514,1.13533 0.476731,0.4262 0.943409,0.86378 1.401982,1.30948 0.405028,0.3948 0.808141,0.79082 1.20096,1.19786 0.06726,0.0685 0.133807,0.1376 0.201022,0.20619 z"
       id="path31" />
    <path
       style="fill:#000000;stroke-width:0.264583"
       d="m 86.237737,164.79646 -0.0047,9.34361 c 0.376427,-0.38362 0.762173,-0.75779 1.148251,-1.13171 0.462036,-0.44812 0.930233,-0.88996 1.397847,-1.33222 0.473241,-0.44184 0.967347,-0.86081 1.46141,-1.27899 0.514131,-0.42816 1.050399,-0.82834 1.583366,-1.23248 0.304486,-0.22922 0.613469,-0.45251 0.925008,-0.6718 -0.539657,-0.39615 -1.09754,-0.76575 -1.664498,-1.12138 -0.640416,-0.38676 -1.281234,-0.77293 -1.927531,-1.1498 -0.655512,-0.36995 -1.334767,-0.69559 -2.016414,-1.01389 -0.298127,-0.14381 -0.599497,-0.27963 -0.902788,-0.41134 z"
       id="path34" />
    <path
       style="fill:#000000;stroke-width:0.264583"
       d="m 93.186667,158.58392 c -0.198383,0.0919 -0.395993,0.18553 -0.591695,0.28318 -0.565016,0.27538 -1.127939,0.55705 -1.665531,0.88367 -0.490711,0.3025 -0.980524,0.60696 -1.453142,0.93741 -0.440537,0.31383 -0.870661,0.64171 -1.296561,0.97513 -0.364209,0.29184 -0.721566,0.59285 -1.051616,0.92346 -0.209301,0.21989 -0.403209,0.45338 -0.590145,0.69247 0.419236,0.1746 0.83595,0.35498 1.245402,0.55242 0.723353,0.33794 1.443896,0.68412 2.138888,1.07797 0.660378,0.38525 1.315222,0.77944 1.969389,1.17512 0.612861,0.38467 1.216489,0.78403 1.798856,1.21388 0.133822,0.1005 0.26494,0.20423 0.397392,0.30644 0.378688,-0.23562 0.761084,-0.4655 1.149801,-0.68419 0.635934,-0.34425 1.296542,-0.63931 1.958537,-0.92915 0.633633,-0.27948 1.28048,-0.52683 1.933215,-0.75757 0.108608,-0.0373 0.218998,-0.0688 0.328145,-0.10439 l -5.16e-4,-0.7152 c -0.244924,-0.26261 -0.493901,-0.52125 -0.741557,-0.78135 -0.341427,-0.35416 -0.691281,-0.69975 -1.03663,-1.05006 -0.363599,-0.35437 -0.732429,-0.70349 -1.096573,-1.0573 -0.372163,-0.34924 -0.749542,-0.69325 -1.12758,-1.03612 -0.397722,-0.34875 -0.791614,-0.70189 -1.194759,-1.04438 -0.346198,-0.30166 -0.706535,-0.58566 -1.07332,-0.86144 z"
       id="path38" />
    <path
       style="fill:#000000;stroke-width:0.264583"
       d="m 99.452951,156.46828 c -0.293654,0.0717 -0.586579,0.14601 -0.878499,0.2248 -0.6884,0.18715 -1.374971,0.38114 -2.055688,0.59479 -0.586149,0.1866 -1.166602,0.38943 -1.738396,0.61598 0.155577,0.12674 0.312029,0.25257 0.463538,0.38448 0.415246,0.35334 0.821938,0.71647 1.231449,1.07642 0.39087,0.35462 0.780964,0.71008 1.165304,1.07177 0.371865,0.36145 0.74915,0.71736 1.119828,1.08003 0.231745,0.23509 0.463607,0.47002 0.695565,0.70487 z"
       id="path36" />
    <path
       style="fill:#000000;stroke-width:0.264583"
       d="m 86.243422,154.7273 -0.0036,6.6058 c 0.315819,-0.30058 0.64962,-0.58181 0.989604,-0.85473 0.448231,-0.35153 0.901484,-0.69609 1.365291,-1.02681 0.499958,-0.35036 1.017892,-0.67347 1.537374,-0.99373 0.52449,-0.31974 1.072631,-0.59792 1.623674,-0.86869 -0.0979,-0.0632 -0.19483,-0.12791 -0.293006,-0.19068 -0.563959,-0.3641 -1.149654,-0.69257 -1.735811,-1.01906 -0.615468,-0.34429 -1.248343,-0.65499 -1.883089,-0.9617 -0.522221,-0.25636 -1.059032,-0.47886 -1.600419,-0.6904 z"
       id="path39" />
    <path
       style="fill:#000000;stroke-width:0.264583"
       d="m 92.573268,149.65423 c -0.118149,0.0551 -0.237122,0.10864 -0.3545,0.16536 -0.468604,0.22424 -0.930668,0.46208 -1.377177,0.72812 -0.447092,0.26913 -0.890839,0.54313 -1.326534,0.83044 -0.426759,0.28438 -0.853103,0.5694 -1.270724,0.86714 -0.398248,0.29032 -0.797975,0.57906 -1.192175,0.87488 -0.08471,0.0642 -0.169061,0.12896 -0.253731,0.19327 0.577133,0.22573 1.14961,0.46331 1.706355,0.73639 0.661213,0.31954 1.320516,0.64383 1.961638,1.00252 0.612967,0.34146 1.225086,0.68536 1.814876,1.06608 0.368617,0.23569 0.735491,0.47417 1.095024,0.72347 0.175314,-0.0746 0.349521,-0.15147 0.526066,-0.22324 0.706093,-0.29303 1.427361,-0.54617 2.155424,-0.77825 0.7014,-0.22034 1.40886,-0.4205 2.118217,-0.61339 0.42352,-0.11438 0.849628,-0.21844 1.276408,-0.31937 v -0.48214 c -0.142679,-0.11398 -0.286734,-0.22624 -0.427881,-0.34209 -0.329698,-0.28669 -0.668178,-0.56322 -1.005107,-0.8413 -0.368349,-0.30594 -0.743395,-0.60343 -1.120345,-0.89865 -0.454499,-0.34468 -0.928845,-0.66205 -1.403015,-0.97875 -0.542172,-0.3546 -1.098659,-0.68574 -1.658813,-1.01079 -0.417181,-0.24052 -0.839971,-0.47137 -1.264006,-0.6997 z"
       id="path45" />
    <path
       style="fill:#000000;stroke-width:0.264583"
       d="m 99.448817,147.78096 c -0.268207,0.0299 -0.536383,0.0606 -0.804085,0.0951 -0.607437,0.079 -1.213892,0.16671 -1.813843,0.29197 -0.552053,0.11725 -1.099496,0.25496 -1.637626,0.42582 -0.286877,0.093 -0.571234,0.19379 -0.853178,0.30076 0.08627,0.0489 0.173506,0.0962 0.259416,0.14572 0.587783,0.34109 1.171817,0.68844 1.740462,1.06092 0.505918,0.33798 1.011955,0.67695 1.496033,1.04593 0.387165,0.30322 0.772465,0.60928 1.150834,0.92346 0.154901,0.12786 0.310088,0.25562 0.464571,0.38395 z"
       id="path41" />
    <path
       style="fill:#000000;stroke-width:0.264583"
       d="m 86.247039,146.63271 -0.0026,5.19606 c 0.366221,-0.27314 0.735627,-0.54164 1.104842,-0.8108 0.434708,-0.31052 0.878924,-0.60761 1.323434,-0.90382 0.455002,-0.3002 0.918518,-0.58698 1.385445,-0.86817 0.279931,-0.1671 0.566365,-0.32215 0.855762,-0.4718 -0.269077,-0.1394 -0.53866,-0.27782 -0.80977,-0.41341 -0.625482,-0.3086 -1.261308,-0.59508 -1.897559,-0.88057 -0.617111,-0.27352 -1.235704,-0.54407 -1.857767,-0.80615 -0.03382,-0.0141 -0.06794,-0.0274 -0.101803,-0.0413 z"
       id="path46" />
    <path
       style="fill:#000000;stroke-width:0.264583"
       d="m 86.201047,132.6563 -1.453141,2.53886 -0.130742,7.94939 1.527556,1.80764 c 0.264879,0.10654 0.530112,0.21216 0.79375,0.32194 0.632768,0.26666 1.262089,0.54179 1.889807,0.82011 0.655697,0.29422 1.310957,0.58967 1.955436,0.90795 0.620072,0.31032 1.2344,0.63172 1.845882,0.9586 0.165187,-0.0727 0.330056,-0.14586 0.496094,-0.21652 0.523714,-0.22203 1.057108,-0.4191 1.597835,-0.59531 0.588209,-0.18773 1.187085,-0.33758 1.790589,-0.46664 0.639854,-0.13392 1.28686,-0.22825 1.934765,-0.31265 0.332551,-0.0429 0.665631,-0.0816 0.998906,-0.11782 l -5.17e-4,-1.1777 1.630913,-1.9296 -0.13075,-7.94939 -1.453137,-2.53886 H 92.84767 Z"
       id="path1" />
    <path
       style="fill:#000000;stroke-width:0.305183"
       d="m 103.22617,125.01833 -19.440376,-0.58005 c 0,0 0.426898,-32.129638 3.317339,-70.490968 C 91.331432,-2.1697854 98.458403,-53.346506 174.37473,-65.562453 309.88682,-87.36815 280.1619,12.923212 277.60796,45.889031 276.65559,58.182148 262.95614,156.03374 188.84987,138.47662 120.24637,122.2232 137.31133,80.19825 139.58824,51.694345 c 2.89836,-36.283644 6.9432,-66.848308 56.48827,-75.99279 40.63986,-7.500854 46.62646,44.492484 36.51588,78.500522 -10.2833,34.589054 -37.39445,60.426473 -46.77694,39.10558 C 174.46637,67.51791 217.0257,62.999942 193.36391,34.196336 169.50673,5.1548396 168.67705,10.913254 168.67705,10.913254 c 0,0 -1.38592,-16.9772943 5.85167,-7.6319945 7.23757,9.3452995 26.82786,32.0200405 29.00447,42.3796755 2.61946,12.467345 -14.07812,26.749049 -16.99318,36.588114 -0.58141,1.962418 -0.92394,27.568651 19.40287,10.902851 20.32681,-16.665785 44.50938,-76.467977 14.68593,-105.802848 -23.73759,-23.348712 -69.42214,9.0720218 -72.42505,31.058186 -1.64127,12.016798 -11.4795,78.603444 -0.78014,90.889812 14.46984,16.61613 51.01916,38.43916 79.95251,19.38114 32.24396,-21.23869 38.02678,-53.834816 41.41219,-78.460711 9.313,-67.744263 9.16815,-102.213364 -42.02402,-109.015172 -71.58821,-9.511791 -102.15814,29.384022 -108.17281,44.362439 -6.8207,16.985706 -20.048057,85.699439 -15.36532,139.453584 z"
       id="path2"
       sodipodi:nodetypes="ccssssssssscsssssssssssc" />
  </g>
</svg>
